<?xml version="1.0" encoding="utf-8"?>
<!-- Generator: Adobe Illustrator 23.0.0, SVG Export Plug-In . SVG Version: 6.00 Build 0)  -->
<svg version="1.1" id="Layer_1" xmlns="http://www.w3.org/2000/svg" xmlns:xlink="http://www.w3.org/1999/xlink" x="0px" y="0px"
	 viewBox="0 0 5803.75 8192" style="enable-background:new 0 0 5803.75 8192;" xml:space="preserve">
<style type="text/css">
	.st0{fill:#FFFFFF;}
</style>
<path class="st0" d="M0,1609.96l528.14,5923.89L2898.4,8192l2376.64-658.73l528.72-5923.31H0z M4654.61,3547.25H2901.3h-1.74
	h-1026.1l66.16,744.04h959.94h1.74h1687.73l-199.65,2230.38l-1487.5,412.58v0.06l-2.32,0.58l-1489.82-412.65l-101.57-1141.02h729.53
	l51.65,579.79l810.2,218.22l811.36-218.8l84.15-942.53H2901.3h-1.74H1275.67l-196.17-2197.3h1820.06h1.74h1818.32L4654.61,3547.25z"
	/>
<path class="st0" d="M1247.23,0v365.06H909.45V0 M540.33,0v1104.45h369.12v-369.7h337.78v369.7h369.12V0 M1776.53,0v366.22h0.58
	h325.01v738.24h369.12V366.22h325.01V0 M3815.97,0l-236.21,388.27L3342.96,0 M2958.17,0v1104.45h360.99V557.16l254.2,392.91h6.38
	l254.2-392.91v547.29h367.38V0 M4385.32,0v1104.45h888.55V739.4h-519.44V0"/>
</svg>
