<?xml version="1.0" encoding="utf-8"?>
<!-- Generator: Adobe Illustrator 23.0.0, SVG Export Plug-In . SVG Version: 6.00 Build 0)  -->
<svg version="1.1" id="Layer_1" xmlns="http://www.w3.org/2000/svg" xmlns:xlink="http://www.w3.org/1999/xlink" x="0px" y="0px"
	 viewBox="0 0 2270 2500" style="enable-background:new 0 0 2270 2500;" xml:space="preserve">
<style type="text/css">
	.st0{fill:#FFFFFF;}
</style>
<g>
	<path class="st0" d="M1032.84,31.74c61.72-35.33,142.11-35.49,203.78,0c310.24,175.3,620.58,350.33,930.76,525.74
		c58.34,32.86,97.37,97.79,96.77,165.02v1054.68c0.43,70.01-42.45,136.49-104,168.61c-309.22,174.34-618.28,348.88-927.45,523.22
		c-63,36.02-145,33.24-206.03-5.73c-92.7-53.74-185.57-107.22-278.28-160.9c-18.95-11.29-40.3-20.28-53.68-38.65
		c11.83-15.94,32.97-17.93,50.15-24.88c38.7-12.3,74.24-32.06,109.79-51.22c8.99-6.15,19.96-3.79,28.58,1.71
		c79.27,45.45,157.85,92.23,237.38,137.24c16.97,9.8,34.15-3.21,48.65-11.29c303.44-171.5,607.25-342.35,910.64-513.9
		c11.24-5.41,17.46-17.34,16.54-29.65c0.21-347.92,0.05-695.9,0.11-1043.81c1.29-13.97-6.8-26.82-19.43-32.54
		c-308.15-173.54-616.13-347.34-924.23-520.92c-10.93-7.51-25.35-7.53-36.29-0.05c-308.09,173.63-616.03,347.6-924.12,521.13
		c-12.59,5.73-21.04,18.36-19.54,32.38c0.05,347.92,0,695.9,0,1043.87c-1.09,12.31,5.59,23.99,16.76,29.28
		c82.22,46.62,164.54,92.92,246.81,139.38c46.35,24.95,103.25,39.77,154.32,20.66c45.06-16.16,76.65-62.15,75.79-109.99
		c0.43-345.89-0.21-691.83,0.32-1037.66c-1.13-15.35,13.44-28.04,28.37-26.6c39.5-0.27,79.06-0.53,118.56,0.11
		c16.49-0.37,27.84,16.16,25.8,31.63c-0.16,348.08,0.43,696.16-0.27,1044.24c0.11,92.77-38.01,193.71-123.81,239.1
		c-105.71,54.76-236.37,43.15-340.8-9.36c-90.41-45.12-176.68-98.38-265.49-146.72c-61.71-31.94-104.38-98.69-103.95-168.64V722.49
		c-0.65-68.62,39.93-134.73,100.09-167.11C414.61,380.9,723.72,206.29,1032.84,31.74z"/>
	<path class="st0" d="M1302.55,762.32c134.84-8.68,279.19-5.14,400.53,61.29c93.95,50.9,146.03,157.74,147.69,262.11
		c-2.62,14.08-17.34,21.84-30.78,20.88c-39.12-0.05-78.25,0.53-117.38-0.27c-16.6,0.64-26.24-14.66-28.32-29.34
		c-11.24-49.94-38.48-99.4-85.48-123.48c-72.15-36.13-155.82-34.31-234.49-33.55c-57.44,3.05-119.2,8.02-167.86,41.8
		c-37.36,25.59-48.71,77.23-35.37,118.83c12.57,29.87,47.05,39.5,75.26,48.39c162.5,42.5,334.7,38.27,494.1,94.2
		c65.99,22.8,130.55,67.13,153.14,136.22c29.55,92.61,16.6,203.3-49.29,277.64c-53.43,61.18-131.25,94.48-208.87,112.56
		c-103.25,23.02-210.41,23.61-315.27,13.39c-98.6-11.24-201.21-37.15-277.32-104.33c-65.09-56.52-96.88-144.57-93.72-229.57
		c0.75-14.35,15.04-24.36,28.79-23.18c39.4-0.32,78.79-0.43,118.19,0.05c15.74-1.13,27.4,12.47,28.21,27.3
		c7.27,47.58,25.15,97.52,66.64,125.73c80.07,51.66,180.54,48.12,272.23,49.57c75.96-3.37,161.22-4.39,223.21-54.59
		c32.7-28.63,42.39-76.54,33.56-117.76c-9.57-34.8-45.98-51.01-77.23-61.61c-160.42-50.74-334.54-32.33-493.4-89.72
		c-64.49-22.79-126.86-65.89-151.64-132.15c-34.57-93.78-18.73-209.77,54.06-281.6C1102.69,799.68,1205.14,772.16,1302.55,762.32
		L1302.55,762.32z"/>
</g>
</svg>
