<?xml version="1.0" encoding="utf-8"?>
<!-- Generator: Adobe Illustrator 23.0.0, SVG Export Plug-In . SVG Version: 6.00 Build 0)  -->
<svg version="1.1" id="Layer_1" xmlns="http://www.w3.org/2000/svg" xmlns:xlink="http://www.w3.org/1999/xlink" x="0px" y="0px"
	 viewBox="0 0 134 122.52" style="enable-background:new 0 0 134 122.52;" xml:space="preserve">
<style type="text/css">
	.st0{fill:#FFFFFF;}
</style>
<g>
	<g>
		<g>
			<path class="st0" d="M15.71,61.26c0,20.8,12.09,38.78,29.62,47.3L20.26,39.87C17.34,46.41,15.71,53.64,15.71,61.26z"/>
			<path class="st0" d="M103.74,58.61c0-6.49-2.33-10.99-4.33-14.49c-2.66-4.33-5.16-7.99-5.16-12.32c0-4.83,3.66-9.33,8.82-9.33
				c0.23,0,0.45,0.03,0.68,0.04c-9.35-8.57-21.81-13.8-35.49-13.8c-18.36,0-34.51,9.42-43.91,23.69c1.23,0.04,2.4,0.06,3.38,0.06
				c5.5,0,14.01-0.67,14.01-0.67c2.83-0.17,3.17,3.99,0.34,4.33c0,0-2.85,0.33-6.01,0.5L55.2,93.55l11.5-34.49l-8.19-22.43
				c-2.83-0.17-5.51-0.5-5.51-0.5c-2.83-0.17-2.5-4.5,0.33-4.33c0,0,8.68,0.67,13.84,0.67c5.5,0,14.01-0.67,14.01-0.67
				c2.83-0.17,3.17,3.99,0.34,4.33c0,0-2.85,0.33-6.01,0.5L94.5,93.11l5.24-17.52C102.01,68.33,103.74,63.11,103.74,58.61z"/>
			<path class="st0" d="M69.18,65.86l-15.77,45.82c4.71,1.38,9.69,2.14,14.85,2.14c6.12,0,11.99-1.06,17.45-2.98
				c-0.14-0.22-0.27-0.46-0.37-0.72L69.18,65.86z"/>
			<path class="st0" d="M114.38,36.05c0.23,1.67,0.35,3.47,0.35,5.4c0,5.33-1,11.33-4,18.82l-16.05,46.41
				c15.62-9.11,26.13-26.04,26.13-45.43C120.82,52.12,118.48,43.53,114.38,36.05z"/>
			<path class="st0" d="M68.26,0C34.48,0,7,27.48,7,61.26c0,33.78,27.48,61.26,61.26,61.26c33.78,0,61.27-27.48,61.27-61.26
				C129.53,27.48,102.04,0,68.26,0z M68.26,119.71c-32.23,0-58.45-26.22-58.45-58.46c0-32.23,26.22-58.45,58.45-58.45
				c32.23,0,58.45,26.22,58.45,58.45C126.71,93.49,100.49,119.71,68.26,119.71z"/>
		</g>
	</g>
</g>
</svg>
