<?xml version="1.0" encoding="utf-8"?>
<!-- Generator: Adobe Illustrator 23.0.0, SVG Export Plug-In . SVG Version: 6.00 Build 0)  -->
<svg version="1.1" xmlns="http://www.w3.org/2000/svg" xmlns:xlink="http://www.w3.org/1999/xlink" x="0px" y="0px"
	 viewBox="0 0 200 200" style="enable-background:new 0 0 200 200;" xml:space="preserve">
<style type="text/css">
	.st0{display:none;}
	.st1{display:inline;fill:#BE1E2D;}
	.st2{display:inline;}
	.st3{fill:#FFFFFF;}
</style>
<g id="grad_cap" class="st0">
	<path class="st1" d="M198,68.95c0,1.22-0.67,2.1-1.99,2.6l-95.78,30.04c-0.21,0.1-0.46,0.15-0.77,0.15c-0.31,0-0.61-0.05-0.92-0.15
		L42.75,83.97c-2.45,1.94-4.44,5.16-5.98,9.65c-1.53,4.5-2.51,9.56-2.91,15.17c3.58,2.05,5.37,5.11,5.37,9.2
		c0,4.09-1.64,7.2-4.91,9.35l4.91,37.09c0.1,0.71-0.1,1.4-0.61,2.07c-0.51,0.66-1.23,1-2.14,1h-16.4c-0.82,0-1.51-0.33-2.07-1
		c-0.56-0.67-0.79-1.36-0.69-2.07l5.05-37.09c-3.37-2.14-5.05-5.26-5.05-9.35c0-4.09,1.84-7.2,5.52-9.35
		c0.71-11.75,3.52-21.15,8.43-28.2l-28.5-8.89c-1.23-0.51-1.84-1.38-1.84-2.6c0-1.23,0.61-2.15,1.84-2.76l95.78-30.04
		c0.3-0.1,0.61-0.15,0.92-0.15c0.31,0,0.56,0.05,0.77,0.15l95.78,30.04C197.33,66.7,198,67.62,198,68.95z M152.63,96.53l1.53,27.13
		c0.2,3.88-2.14,7.51-7.05,10.88c-4.91,3.37-11.6,6.03-20.08,7.97c-8.48,1.94-17.67,2.97-27.59,3.07c-9.91,0.1-19.1-0.92-27.59-3.07
		c-8.48-2.14-15.17-4.8-20.07-7.97c-4.91-3.17-7.25-6.79-7.05-10.88l1.53-27.13l49.04,15.48c1.23,0.41,2.61,0.61,4.14,0.61
		c1.53,0,2.91-0.2,4.14-0.61L152.63,96.53z"/>
</g>
<g id="briefcase" class="st0">
	<g class="st2">
		<path d="M91.33,102.9v19.98H0.23l2-58.33c0.53-14.38,7.19-21.58,19.98-21.58h31.96c2.13-3.46,4.59-7.92,7.39-13.38l4.59-8.99
			c1.86-3.46,3.39-5.59,4.59-6.39c1.2-0.8,3.66-1.2,7.39-1.2h44.35c3.46,0,5.86,0.47,7.19,1.4c1.33,0.93,2.8,2.99,4.39,6.19
			c2.4,4.26,6.39,11.72,11.99,22.37h31.96c12.79,0,19.45,7.19,19.98,21.58l2,58.33h-90.7V102.9H91.33z M109.3,152.84v-19.98h85.9
			c-0.8,11.72-1.47,22.77-2,33.16c-0.79,11.19-6.79,16.78-17.98,16.78H25.4c-11.99,0-17.98-5.59-17.98-16.78l-2-33.16h85.9v19.98
			H109.3z M76.54,32.18l-5.59,10.79h58.33l-5.59-10.79c-1.86-3.46-4.66-5.19-8.39-5.19H84.93C81.2,26.98,78.41,28.71,76.54,32.18z"
			/>
	</g>
</g>
<g id="pdf">
	<g>
		<g>
			<path class="st3" d="M179.39,42.45c2.14,2.14,3.94,4.94,5.41,8.41c1.47,3.47,2.2,6.8,2.2,10.01v128.55c0,3.07-1,5.61-3.01,7.61
				c-2,2-4.54,3.07-7.61,3.2H26.21c-3.07,0-5.61-1.07-7.61-3.2c-2-2.14-3.07-4.68-3.2-7.61V10.81c0-3.07,1.07-5.61,3.2-7.61
				c2.14-2,4.67-3.07,7.61-3.2h100.12c2.93,0,6.21,0.73,9.81,2.2c3.6,1.47,6.41,3.27,8.41,5.4L179.39,42.45z M172.78,186.02V71.48
				h-46.46c-3.07,0-5.61-1-7.61-3.01c-2-2-3.07-4.54-3.2-7.61V14.22h-85.9v171.8H172.78z M115.32,119.74
				c2.41,1.87,5.54,3.94,9.41,6.21c4.4-0.53,8.74-0.8,13.02-0.8c10.94,0,17.55,1.8,19.82,5.41c1.2,1.74,1.27,3.67,0.2,5.81
				c0,0.13-0.07,0.2-0.2,0.2l-0.2,0.4c-0.4,2.8-3.01,4.2-7.81,4.2c-3.6,0-7.94-0.73-13.01-2.2c-5.07-1.47-9.88-3.4-14.42-5.81
				c-16.42,1.74-31.04,4.81-43.85,9.21c-11.35,19.49-20.36,29.23-27.03,29.23c-1.07,0-2.07-0.27-3.01-0.8l-2.8-1.2
				c0-0.13-0.2-0.33-0.6-0.6c-0.8-0.8-1.07-2.13-0.8-4c0.67-3.07,2.81-6.47,6.41-10.21c3.6-3.73,8.48-7.34,14.62-10.81
				c1.07-0.66,1.94-0.46,2.61,0.6c0.13,0.14,0.2,0.27,0.2,0.4c3.87-6.27,7.87-13.61,12.01-22.03c5.07-10.14,8.94-19.89,11.61-29.23
				c-1.74-6.14-2.87-12.08-3.41-17.82c-0.53-5.74-0.27-10.48,0.8-14.22c0.8-2.94,2.34-4.4,4.6-4.4h2.41c1.73,0,3.07,0.53,4,1.6
				c1.33,1.6,1.67,4.14,1,7.61c-0.14,0.4-0.27,0.67-0.4,0.8v4.4c-0.14,9.08-0.67,16.22-1.6,21.42
				C103.03,105.26,108.51,114.13,115.32,119.74z M50.84,165.59c4-1.74,9.14-7.61,15.42-17.62c-3.87,2.94-7.14,6.08-9.81,9.42
				C53.77,160.72,51.91,163.46,50.84,165.59z M81.48,136.56c10.14-4,20.76-7.01,31.83-9.01c-0.13,0-0.6-0.33-1.4-1l-1.8-1.6
				c-5.74-4.94-10.48-11.48-14.22-19.62c-2,6.41-5.14,13.75-9.41,22.03C84.35,131.49,82.68,134.56,81.48,136.56z M95.49,62.87
				c-1.2,3.07-1.33,7.94-0.4,14.62c0.13-0.53,0.4-2.14,0.8-4.81c0-0.26,0.26-1.87,0.8-4.81c0.13-0.4,0.33-0.73,0.6-1
				c-0.14,0-0.2-0.07-0.2-0.2v-0.2l-0.2-0.2c0-1.6-0.47-2.94-1.4-4V62.87z M129.73,15.22v42.05h42.05
				c-0.67-2.14-1.47-3.67-2.41-4.61l-35.04-35.04C133.53,16.69,132,15.89,129.73,15.22z M153.76,134.96
				c-1.87-1.87-7.07-2.8-15.62-2.8c5.61,2.14,10.21,3.2,13.82,3.2c1.07,0,1.73-0.06,2-0.2L153.76,134.96z"/>
		</g>
	</g>
</g>
<g id="email" class="st0">
	<g class="st2">
		<g>
			<path class="st3" d="M198.8,73.21v87.92c0,4.89-1.72,9.07-5.16,12.51c-3.44,3.44-7.61,5.22-12.5,5.36H17.99
				c-4.76,0-8.93-1.79-12.5-5.36c-3.57-3.57-5.29-7.74-5.16-12.51V73.21c3.3,3.71,7.01,6.95,11.12,9.72
				c26.72,18.13,45.12,30.83,55.18,38.11c4.23,3.17,7.61,5.62,10.12,7.34c2.51,1.72,6.02,3.51,10.51,5.36
				c4.5,1.86,8.54,2.71,12.11,2.58h0.4c3.7,0,7.74-0.86,12.11-2.58c4.37-1.72,7.87-3.5,10.51-5.36c2.65-1.85,6.02-4.3,10.12-7.34
				c12.57-9,30.96-21.7,55.18-38.11C191.92,80.03,195.63,76.78,198.8,73.21z M198.8,40.67c0,5.82-1.79,11.38-5.36,16.67
				c-3.57,5.3-8.07,9.86-13.49,13.7c-27.79,19.32-45.12,31.29-52,35.92l-10.52,7.74c-1.58,1.19-3.5,2.38-5.75,3.57
				c-2.25,1.19-4.44,2.19-6.55,2.98c-2.12,0.79-3.91,1.13-5.36,0.99h-0.4c-1.59,0-3.37-0.33-5.36-0.99
				c-1.98-0.66-4.17-1.65-6.55-2.98c-2.38-1.32-4.3-2.51-5.75-3.57l-10.52-7.74L42.01,86.91c-12.7-8.73-20.24-14.02-22.63-15.87
				c-4.63-3.04-8.93-7.28-12.9-12.7c-3.97-5.42-6.02-10.52-6.15-15.28c0-5.69,1.52-10.45,4.56-14.29S12.31,23,17.99,23h163.15
				c4.76,0,8.86,1.72,12.3,5.16C196.88,31.61,198.67,35.77,198.8,40.67z"/>
		</g>
	</g>
</g>
</svg>
