<?xml version="1.0" encoding="utf-8"?>
<!-- Generator: Adobe Illustrator 23.0.0, SVG Export Plug-In . SVG Version: 6.00 Build 0)  -->
<svg version="1.1" id="Layer_1" xmlns="http://www.w3.org/2000/svg" xmlns:xlink="http://www.w3.org/1999/xlink" x="0px" y="0px"
	 viewBox="0 0 2500 2383" style="enable-background:new 0 0 2500 2383;" xml:space="preserve">
<style type="text/css">
	.st0{fill:#FFFFFF;}
</style>
<path class="st0" d="M1732.24,1657.64c92.26-9.55,162.25-89.08,159.06-184.53c-3.17-95.44-82.71-171.8-178.15-171.8h-6.36
	c-98.63,3.18-174.98,85.9-171.8,184.52c3.18,47.72,22.27,89.08,50.9,117.71c-108.16,213.16-273.59,369.05-521.74,499.49
	c-168.61,89.08-343.58,120.9-518.55,98.63c-143.16-19.09-254.51-82.71-324.51-187.71c-101.8-155.89-111.34-324.51-25.44-493.12
	c60.45-120.9,155.88-209.98,216.33-254.52c-12.72-41.36-31.82-111.35-41.36-162.25c-461.3,334.05-413.57,785.82-273.59,998.97
	c104.98,159.08,318.13,257.71,553.55,257.71c63.62,0,127.25-6.37,190.88-22.27C1248.67,2258.94,1557.27,2017.14,1732.24,1657.64
	L1732.24,1657.64z M2292.16,1263.14c-241.79-283.15-598.1-439.04-1005.31-439.04h-50.9c-28.63-57.27-89.08-95.45-155.89-95.45h-6.37
	c-98.61,3.18-174.96,85.9-171.79,184.53c3.18,95.44,82.71,171.8,178.15,171.8h6.36c69.99-3.18,130.44-47.72,155.89-108.17h57.27
	c241.79,0,470.84,69.99,677.64,206.8c159.06,104.99,273.59,241.8,337.22,407.23c54.08,133.62,50.9,264.06-6.37,375.42
	c-89.07,168.61-238.59,260.88-435.84,260.88c-127.26,0-248.14-38.18-311.78-66.82c-34.99,31.82-98.62,82.71-143.16,114.54
	c136.81,63.62,276.79,98.62,410.4,98.62c305.41,0,531.29-168.62,617.19-337.24C2537.12,1851.71,2530.75,1533.56,2292.16,1263.14
	L2292.16,1263.14z M676.03,1711.71c3.18,95.45,82.71,171.8,178.15,171.8h6.37c98.62-3.17,174.97-85.9,171.79-184.52
	c-3.17-95.45-82.71-171.8-178.15-171.8h-6.36c-6.37,0-15.92,0-22.27,3.17c-130.44-216.34-184.52-451.76-165.43-706.28
	c12.71-190.89,76.35-356.33,187.7-493.13c92.26-117.71,270.41-174.98,391.31-178.15c337.22-6.37,480.37,413.58,489.92,582.21
	c41.36,9.54,111.35,31.82,159.07,47.72C1849.94,267.34,1531.81,0.09,1226.41,0.09c-286.33,0-550.38,206.8-655.37,512.22
	c-146.34,407.23-50.9,798.54,127.26,1107.15C682.39,1641.72,672.84,1676.72,676.03,1711.71L676.03,1711.71z"/>
</svg>
