<?xml version="1.0" encoding="utf-8"?>
<!-- Generator: Adobe Illustrator 23.0.0, SVG Export Plug-In . SVG Version: 6.00 Build 0)  -->
<svg version="1.1" id="Layer_1" xmlns="http://www.w3.org/2000/svg" xmlns:xlink="http://www.w3.org/1999/xlink" x="0px" y="0px"
	 viewBox="0 0 2500 2500" style="enable-background:new 0 0 2500 2500;" xml:space="preserve">
<style type="text/css">
	.st0{fill:#FFFFFF;}
</style>
<path class="st0" d="M1250,0C559.6,0,0,559.6,0,1250s559.6,1250,1250,1250s1250-559.6,1250-1250S1940.4,0,1250,0z M268.6,1263
	l968.4,968.4C705.2,2224.5,275.5,1794.8,268.6,1263L268.6,1263z M1469.7,2206.9L293.1,1030.3C392.9,594,783.4,268.4,1250,268.4
	c326.1,0,615.1,159.1,793.6,403.9l-135.9,119.9c-144.8-207.6-385.4-343.5-657.7-343.5c-346.7,0-642,220.2-753.6,528.4l1026.5,1026.4
	c249.3-90.3,441-300.7,505.2-561.3h-425.4V1250h629C2231.6,1716.6,1906,2107.1,1469.7,2206.9L1469.7,2206.9z"/>
</svg>
