<?xml version="1.0" encoding="utf-8"?>
<!-- Generator: Adobe Illustrator 23.0.0, SVG Export Plug-In . SVG Version: 6.00 Build 0)  -->
<svg version="1.1" id="Layer_1" xmlns="http://www.w3.org/2000/svg" xmlns:xlink="http://www.w3.org/1999/xlink" x="0px" y="0px"
	 viewBox="0 0 2500 2500" style="enable-background:new 0 0 2500 2500;" xml:space="preserve">
<style type="text/css">
	.st0{fill:#FFFFFF;}
</style>
<path class="st0" d="M2452.85,1138.61L1361.33,47.15c-62.82-62.86-164.78-62.86-227.68,0L906.99,273.81l287.53,287.53
	c66.82-22.58,143.44-7.43,196.7,45.83c53.52,53.6,68.55,130.88,45.43,197.91l277.1,277.11c67.04-23.1,144.39-8.15,197.94,45.48
	c74.83,74.8,74.83,196.04,0,270.9c-74.85,74.86-196.09,74.86-270.99,0c-56.29-56.35-70.2-139.01-41.7-208.36l-258.42-258.42
	l-0.03,680.05c18.73,9.26,35.84,21.5,50.66,36.23c74.83,74.8,74.83,196.05,0,270.97c-74.85,74.82-196.15,74.82-270.9,0
	c-74.83-74.91-74.83-196.15,0-270.96c17.93-17.94,39.25-32.15,62.71-41.81V919.88c-23.49-9.59-44.82-23.81-62.71-41.81
	c-56.7-56.62-70.33-139.81-41.28-209.43L795.61,385.18L47.17,1133.56c-62.89,62.92-62.89,164.88,0,227.75L1138.71,2452.8
	c62.84,62.87,164.78,62.87,227.7,0l1086.44-1086.42C2515.71,1303.5,2515.71,1201.47,2452.85,1138.61"/>
</svg>
