<?xml version="1.0" encoding="utf-8"?>
<!-- Generator: Adobe Illustrator 23.0.0, SVG Export Plug-In . SVG Version: 6.00 Build 0)  -->
<svg version="1.1" id="Layer_1" xmlns="http://www.w3.org/2000/svg" xmlns:xlink="http://www.w3.org/1999/xlink" x="0px" y="0px"
	 viewBox="0 0 2500 704" style="enable-background:new 0 0 2500 704;" xml:space="preserve">
<style type="text/css">
	.st0{fill:#FFFFFF;}
</style>
<path class="st0" d="M714.5,274.99l0.01-0.03l-19.97,70.76L714.5,274.99z M817.18,428.6l-22-0.13L817.18,428.6z M811.52,534.27h0.02
	l-131.81,0.48L811.52,534.27z M839.16,428.73l-22.01-0.13L839.16,428.73z M823.07,525.29l22.96-87.56l-22.96,87.58V525.29
	L823.07,525.29z M1308.37,122.04l-42.77,201.07L1308.37,122.04z M1198.43,122.04l-32.47,150.21l32.47-150.22V122.04z"/>
<path class="st0" d="M1301.05,112.99h-91.46c-5.07,0-10.11,4.07-11.19,9.03l-32.47,150.22l-32.47,150.22
	c-1.08,4.96-6.11,9.02-11.18,9.02h-64.74c-64.05,0-56.64-44.31-43.52-104.99l0.39-1.83l1.44-7.65c0.09-0.5,0.19-0.99,0.27-1.44
	l2.92-15.57l3.13-16.7c0.95-5.03,2.4-12.39,3.34-17.01l14.76-72.12l14.77-72.13c1.02-4.97-2.31-9.06-7.39-9.06h-93.88
	c-5.08,0-10.1,4.09-11.14,9.05l-20.19,95.77l-20.18,95.76c-0.02,0.04-0.03,0.11-0.03,0.15l-1.88,8.9
	c-23.25,106.15-17.08,207.37,109.27,210.54c2.07,0.07,3.67,0.08,3.67,0.08h198.35c5.07,0,10.1-4.08,11.16-9.05l42.78-201.06
	l42.77-201.08C1309.41,117.06,1306.12,113,1301.05,112.99L1301.05,112.99z M1665.91,432.53c5.08,0,8.41,4.08,7.39,9.04l-8.89,43.42
	 M1655.55,528.41l8.88-43.44l-8.88,43.45L1655.55,528.41z M1644.41,537.54l0.04-0.01c-26.91,0.22-107.79,0.83-168.59,0.83
	C1549.85,538.37,1644.4,537.54,1644.41,537.54z M1421.3,376.62c-0.08-4.75,5.34-12.94,10.42-12.94l-11.44-0.19
	C1415.14,415.25,1421.3,376.62,1421.3,376.62z"/>
<path class="st0" d="M1484.2,538.36c-0.58,0-1.18,0-1.78,0.01C1483.01,538.36,1483.62,538.36,1484.2,538.36z M1665.91,432.53
	c5.08,0,8.41,4.08,7.39,9.04l-8.89,43.42l-1.44,7.08 M1527.5,538.24h-0.37H1527.5z M1505.04,538.32h-1.32H1505.04z M1498.19,538.34
	c-0.74,0-1.44,0-2.16,0.02C1496.75,538.34,1497.46,538.34,1498.19,538.34z M1491.22,538.36h-1.89H1491.22z M1503.74,538.32
	l-5.54,0.01L1503.74,538.32z M1644.48,537.54c-19.72,0.15-68.43,0.53-117.01,0.73C1576.01,538.07,1624.74,537.69,1644.48,537.54z
	 M1655.55,528.43l7.44-36.37l-7.45,36.4L1655.55,528.43L1655.55,528.43z M1496.05,538.36h-4.83H1496.05z M1482.41,538.37h-6.53
	H1482.41z M1489.31,538.36h-5.15H1489.31z M151.44,377.71l14.2-62.98l-16.24,71.99l-15.59,73.33l13.66-64.28
	C148.53,390.8,150.32,382.66,151.44,377.71L151.44,377.71z M321.48,111.93H221.04c-5.08,0-10.15,4.06-11.28,9l-9.52,42.04
	l-9.52,42.05c-1.12,4.95,2.11,9,7.2,9h101.22c5.07,0,10.12-4.06,11.21-9.02l9.2-42.04l9.2-42.01v-0.01
	C329.83,115.99,326.57,111.93,321.48,111.93L321.48,111.93z M299.62,251.77v-0.01l-29.46,136.28L299.62,251.77L299.62,251.77z
	 M7.84,703.35c0,0,50.63,0.65,82.82,0.65c-24.45,0-64.83-0.45-82.86-0.66l0.05,0.01C7.85,703.35,7.84,703.35,7.84,703.35z
	 M179.85,251.75l-14.22,62.98L179.85,251.75z"/>
<path class="st0" d="M292.36,242.74H191.12c-5.08,0-10.15,4.06-11.27,9.02l-14.22,62.98l-14.2,62.98
	c-1.12,4.95-2.91,13.09-3.96,18.05l-13.66,64.28l-13.65,64.3c-1.06,4.95-3.24,12.96-4.87,17.79c0,0-18.91,56.27-50.71,55.63
	c-1.32-0.02-2.65-0.04-3.97-0.07c-15.4-0.3-27.51-0.52-27.51-0.52h-0.02c-5.07-0.09-10.16,3.89-11.35,8.8l-10.5,44.13l-10.49,44.1
	c-1.18,4.94,2.01,8.99,7.05,9.08c18.03,0.22,58.41,0.69,82.86,0.69c79.42,0,121.28-44.02,148.12-170.63l31.41-145.34l29.46-136.28
	C300.71,246.8,297.43,242.74,292.36,242.74L292.36,242.74z M1730.42,533.21c-5.08,0-8.35-4.07-7.28-9.04l76.15-356.71
	 M1836.26,524.16l30.82-152.26L1836.26,524.16z"/>
<path class="st0" d="M1724.22,528.7c-0.62-2.49-0.26-8.58,0.82-13.56l36.14-169.32l-38.07,178.34c-1.07,4.97,2.21,9.05,7.27,9.05
	h9.25C1734.58,533.22,1724.84,531.18,1724.22,528.7z M1830.24,531.18c-2.76,1.12-9.18,2.03-14.27,2.03h9.25
	c5.08,0,10.06-4.07,11.05-9.05l1.83-9.05C1837.11,520.08,1833.01,530.05,1830.24,531.18L1830.24,531.18z M1851.67,448.03l13.58-67.2
	c-0.01,0.04-0.01,0.11-0.03,0.13L1851.67,448.03L1851.67,448.03z M2152.16,191.35l4.2,17.33c1.16,4.96-2.05,8.99-7.12,9
	 M1838.11,515.11l13.58-67.07L1838.11,515.11z M2147.99,173.6l4.15,17.76L2147.99,173.6z M1865.26,380.84
	c1.01-4.97,2.68-13.03,3.74-17.97l14.52-68.01l-16.45,77.05L1865.26,380.84z M1800.52,161.61c-1.02,4.8-2.3,10.86-3.19,14.88
	l-36.11,169.33l38.07-178.36L1800.52,161.61z"/>
<path class="st0" d="M2156.33,208.68l-4.19-17.33l-4.15-17.76l-2.1-8.99c-8.22-31.95-32.34-50.38-84.75-50.38l-81.6-0.09
	l-75.14-0.09h-84.58c-5.08,0-10.1,4.06-11.15,9.03l-3.73,17.67l-4.4,20.86l-1.23,5.84l-38.07,178.36l-36.14,169.32
	c-1.08,4.97-1.44,11.06-0.82,13.55c0.61,2.5,10.36,4.53,15.46,4.53h76.28c5.08,0,11.51-0.93,14.27-2.04
	c2.77-1.13,6.85-11.09,7.88-16.08l13.58-67.07l13.57-67.05c0.01-0.03,0.01-0.09,0.03-0.11l1.81-8.95l16.45-77.04l14.53-68.05
	c1.08-4.95,6.08-8.99,11.14-9l240.04-0.12C2154.29,217.68,2157.49,213.64,2156.33,208.68L2156.33,208.68z"/>
<path class="st0" d="M2465.33,51.96c-5.08,0.04-13.39,0.07-18.47,0.07h-76.83c-5.08,0-11.58,3.43-14.43,7.63l-169.88,248.88
	c-2.87,4.2-6.17,3.58-7.27-1.37l-12.5-54.83c-1.15-4.96-6.21-9-11.29-9h-109.21c-5.09,0-8.1,3.99-6.71,8.87l48.94,171.44
	c1.37,4.88,1.5,12.93,0.24,17.82l-21.35,82.98c-1.27,4.93,1.86,8.95,6.94,8.95h107.94c5.08,0,10.26-4.03,11.53-8.95l21.34-82.98
	c1.26-4.92,4.79-12.27,7.87-16.32l275.81-366.03c3.06-4.06,1.4-7.36-3.67-7.32L2465.33,51.96L2465.33,51.96z M1597.66,266.67
	l-0.01-0.11c-0.64,5.51-5.74,9.56-10.82,9.56h-138.44c-4.79,0-7.25-3.26-6.52-7.27c0.04-0.12,0.07-0.22,0.11-0.32
	c0,0-0.05,0.01-0.11,0.05c0.05-0.16,0.05-0.31,0.1-0.46c0,0,0.28-0.97,0.63-2.35c13.22-35.16,40.16-58.23,90.81-58.23
	C1590.4,207.52,1601.53,235.37,1597.66,266.67L1597.66,266.67z M1557.03,106.85c-177.74,0-219.85,107.88-243.47,216.77
	c-23.64,110.99-21.6,214.75,162.32,214.75h6.53c0.58-0.01,1.18-0.01,1.76-0.01h11.89c0.73-0.02,1.41-0.02,2.15-0.02l5.56-0.01h1.3
	c7.26-0.01,14.66-0.05,22.06-0.08h0.37c48.56-0.19,97.29-0.55,117.01-0.72c5.04-0.1,10-4.14,11.04-9.08l7.45-36.4l1.45-7.07
	l8.88-43.41c1.03-4.97-2.3-9.05-7.38-9.05h-165.33c-65.77,0-85.3-17.47-78.11-68.85h264.31l-0.03,0.03c0.07,0,0.12-0.03,0.18-0.03
	c4.2-0.1,8.08-2.97,9.62-6.84c0.29-0.74,0.53-1.52,0.64-2.31l-0.03,0.03C1736.42,206.55,1725.15,106.85,1557.03,106.85
	L1557.03,106.85z M717,266.11l-2.5,8.86l-0.01,0.03l-19.96,70.73l-19.95,70.72c-1.38,4.88-6.66,8.89-11.75,8.89H557.2
	c-80.13,0-99.64-62.67-80.13-155.11c19.5-94.54,57.76-153.32,136.62-159.27C721.46,102.81,743.02,178.62,717,266.11L717,266.11z
	 M789.45,419.88c0,0,49.8-120.92,61.11-190.78C866.05,135.6,819.23,0,638.4,0C458.6,0,380.53,129.47,350.74,270.21
	c-29.79,141.76,9.24,266.07,188.01,265.07l141.03-0.53l131.81-0.49c5.08-0.04,10.26-4.07,11.56-8.97l22.96-87.58
	c1.28-4.92-1.83-8.96-6.9-8.98l-22-0.12l-22-0.12c-4.31-0.05-6.79-2.83-6.26-6.53c0.09-0.71,0.27-1.4,0.54-2.06h-0.04V419.88
	L789.45,419.88z"/>
<path class="st0" d="M1679.49,338.95c0,3.34-2.71,6.07-6.06,6.07c-3.34,0-6.06-2.72-6.06-6.07s2.71-6.05,6.06-6.05
	C1676.78,332.9,1679.49,335.6,1679.49,338.95z"/>
</svg>
