<?xml version="1.0" encoding="utf-8"?>
<!-- Generator: Adobe Illustrator 23.0.0, SVG Export Plug-In . SVG Version: 6.00 Build 0)  -->
<svg version="1.1" id="Layer_1" xmlns="http://www.w3.org/2000/svg" xmlns:xlink="http://www.w3.org/1999/xlink" x="0px" y="0px"
	 viewBox="0 0 2500 2500" style="enable-background:new 0 0 2500 2500;" xml:space="preserve">
<style type="text/css">
	.st0{fill:#FFFFFF;}
</style>
<path class="st0" d="M1315.86,2374.18v-217.07l542.16-274.64c13-6.58,21.2-19.92,21.18-34.49v-124.27
	c50.64-17.54,84.55-68.04,78.82-123.63c-6.7-64.86-64.71-112.05-129.59-105.35c-64.88,6.68-112.07,64.69-105.35,129.58
	c4.84,47.15,36.82,84.82,78.82,99.4v100.53l-486.04,246.17v-201.93l214.26-99.12c13.65-6.32,22.4-19.98,22.42-35.03l0.42-336.38
	l396.5-222.74c12.18-6.84,19.73-19.72,19.73-33.69v-93.84c50.66-17.48,84.53-68,78.81-123.62c-6.7-64.92-64.73-112.09-129.59-105.35
	c-64.89,6.68-112.04,64.71-105.36,129.59c4.88,47.12,36.84,84.81,78.81,99.38v71.23l-396.45,222.71
	c-12.18,6.84-19.73,19.72-19.74,33.69l-0.42,334.27l-159.39,73.67v-726.87l333.57-163.13c13.27-6.45,21.69-19.91,21.68-34.67V734.3
	c50.63-17.53,84.54-68,78.81-123.65c-6.69-64.85-64.72-112.03-129.58-105.31c-64.9,6.67-112.08,64.68-105.36,129.62
	c4.83,47.12,36.82,84.73,78.81,99.32v100.18l-277.93,135.84v-419.7c50.64-17.51,84.58-68.04,78.82-123.63
	c-6.66-64.88-64.69-112.05-129.59-105.38c-64.86,6.74-112.03,64.72-105.33,129.61c4.82,47.1,36.82,84.78,78.79,99.36v684.45
	l-196.46-103.22V820.85c0-12.01-5.6-23.34-15.14-30.63L892.57,687.3c7.3-17.59,10.47-37.16,8.36-57.44
	c-6.68-64.87-64.72-112-129.59-105.33c-64.89,6.7-112.05,64.7-105.37,129.59c6.69,64.9,64.72,112.07,129.62,105.38
	c15.95-1.66,31.4-6.56,45.41-14.38l123.79,94.83v315.16c0,14.38,7.97,27.56,20.67,34.25l253.09,132.94v251.4L816.3,1378.42
	l5.79-152.96c0.57-15.02-7.62-29.01-21-35.87l-193.54-99.26c3.02-12.74,3.89-25.9,2.57-38.93
	c-6.71-64.87-64.72-112.06-129.59-105.34c-64.89,6.68-112.04,64.71-105.36,129.58c6.7,64.84,64.7,112.01,129.6,105.32
	c22.4-2.28,43.67-10.98,61.25-25.05l177.87,91.23l-5.83,154.11c-0.58,15.59,8.26,30.01,22.42,36.55l478.07,221.1v179.46
	c-0.44,3.38-0.44,6.81,0,10.2v527.37c-40.24-0.43-80.42-2.99-120.39-7.68v-453.3c0-15.11-8.8-28.81-22.52-35.11l-299.95-138.04
	c0.75-7.71,0.76-15.61-0.08-23.63c-6.69-64.86-64.7-112.07-129.59-105.32c-64.88,6.69-112.04,64.68-105.36,129.57
	c6.71,64.84,64.72,112.04,129.62,105.35c27.82-2.85,53.71-15.53,73.02-35.77l277.54,127.73v416.7
	c-521.41-98.34-917.12-556.92-917.12-1106.45c0-621.02,505.26-1126.29,1126.29-1126.29c621.04,0,1126.28,505.27,1126.28,1126.29
	C2376.28,1848.91,1906.34,2339.95,1315.86,2374.18L1315.86,2374.18z M1250.01,0C560.74,0,0,560.78,0,1250
	c0,689.24,560.74,1249.97,1250,1250c689.28,0,1250-560.76,1250-1250C2500,560.79,1939.28,0,1250.01,0L1250.01,0z"/>
</svg>
