<?xml version="1.0" encoding="utf-8"?>
<!-- Generator: Adobe Illustrator 23.0.0, SVG Export Plug-In . SVG Version: 6.00 Build 0)  -->
<svg version="1.1"
	 id="svg3476" inkscape:version="0.91 r13725" sodipodi:docname="CSS3.svg" xmlns:cc="http://creativecommons.org/ns#" xmlns:dc="http://purl.org/dc/elements/1.1/" xmlns:inkscape="http://www.inkscape.org/namespaces/inkscape" xmlns:rdf="http://www.w3.org/1999/02/22-rdf-syntax-ns#" xmlns:sodipodi="http://sodipodi.sourceforge.net/DTD/sodipodi-0.dtd" xmlns:svg="http://www.w3.org/2000/svg"
	 xmlns="http://www.w3.org/2000/svg" xmlns:xlink="http://www.w3.org/1999/xlink" x="0px" y="0px" viewBox="0 0 290.19 409.6"
	 style="enable-background:new 0 0 290.19 409.6;" xml:space="preserve">
<style type="text/css">
	.st0{fill:#FFFFFF;}
</style>
<sodipodi:namedview  bordercolor="#666666" borderopacity="1.0" fit-margin-bottom="0" fit-margin-left="0" fit-margin-right="0" fit-margin-top="0" id="base" inkscape:current-layer="layer1" inkscape:cx="181.367" inkscape:cy="256" inkscape:document-units="px" inkscape:pageopacity="0.0" inkscape:pageshadow="2" inkscape:window-height="704" inkscape:window-maximized="1" inkscape:window-width="1366" inkscape:window-x="0" inkscape:window-y="27" inkscape:zoom="0.35" pagecolor="#ffffff" showgrid="false">
	</sodipodi:namedview>
<g id="layer1" transform="translate(-193.633,-276.3622)" inkscape:groupmode="layer" inkscape:label="Calque 1">
	<g id="g3013" transform="translate(119,276.3622)">
		<path id="path2999" inkscape:connector-curvature="0" class="st0" d="M142.93,0h44v18.4h-25.6v18.4h25.6v18.4h-44V0z"/>
		<path id="path3001" inkscape:connector-curvature="0" class="st0" d="M195.73,0h44v16h-25.6v3.2h25.6V56h-44V39.2h25.6V36h-25.6V0
			z"/>
		<path id="path3003" inkscape:connector-curvature="0" class="st0" d="M248.53,0h44v16h-25.6v3.2h25.6V56h-44V39.2h25.6V36h-25.6V0
			z"/>
		<path class="st0" d="M74.63,80.5l26.41,296.21l118.51,32.9l118.83-32.94L364.82,80.5H74.63z M304.05,214.57l-0.89,9.76
			l-8.54,95.64l-0.55,6.14l-74.35,20.61v0.01l-0.17,0.05l-74.42-20.66l-5.09-57.04h16.81h19.66l2.59,28.97l40.46,10.92l0.03-0.01v0
			l40.52-10.94l4.22-47.12h-44.61h-0.13h-81.17l-3.26-36.33h84.43h0.13h47.76l3.31-37.2h-51.06h-0.13h-87.67l-3.3-36.33h90.97h0.13
			h90.88L304.05,214.57z"/>
	</g>
</g>
</svg>
