<?xml version="1.0" encoding="utf-8"?>
<!-- Generator: Adobe Illustrator 23.0.0, SVG Export Plug-In . SVG Version: 6.00 Build 0)  -->
<svg version="1.1" id="Layer_1" xmlns="http://www.w3.org/2000/svg" xmlns:xlink="http://www.w3.org/1999/xlink" x="0px" y="0px"
	 viewBox="0 0 256 256" style="enable-background:new 0 0 256 256;" xml:space="preserve">
<style type="text/css">
	.st0{fill:#FFFFFF;}
</style>
<path class="st0" d="M232.79,0H23.21C10.39,0,0,10.39,0,23.21v209.59C0,245.61,10.39,256,23.21,256h209.59
	c12.82,0,23.21-10.39,23.21-23.21V23.21C256,10.39,245.61,0,232.79,0z M85.56,49.73c8.51,0,15.64,6.67,15.64,15.4
	c0,8.74-7.13,15.41-15.64,15.41c-8.51,0-15.64-6.67-15.64-15.41C69.92,56.4,77.05,49.73,85.56,49.73z M190.18,197.14
	c-15.87,0-23.46-9.42-23.46-22.31c0-3.68,0.46-7.59,1.61-11.5l7.59-27.14c0.92-2.99,1.15-5.75,1.15-8.28
	c0-8.74-5.29-14.03-13.8-14.03c-10.81,0-17.94,7.76-21.62,22.71l-14.72,59.04h-25.76l4.62-18.55
	c-7.57,12.44-18.08,20.14-31.06,20.14c-15.64,0-23-9.01-23-22.58c0-3.44,0.46-7.67,1.38-11.58l11.73-47.91H46.69l5.52-20.36H95.9
	l-17.25,68.42c-1.15,4.37-1.61,8-1.61,10.53c0,4.38,2.15,5.66,5.52,6.41c2.05,0.46,18.39,0.14,27.29-19.64l11.33-45.36h-18.4
	l5.52-20.36h39.33l-5.06,23.12c6.9-12.88,20.7-25.12,34.27-25.12c14.49,0,26.45,10.32,26.45,30.1c0,5.06-0.69,10.56-2.53,16.77
	l-7.36,26.44c-0.69,2.77-1.15,5.06-1.15,7.13c0,4.6,1.84,6.9,5.29,6.9c3.45,0,7.82-2.53,12.88-16.56l10.12,3.91
	C214.56,188.4,203.75,197.14,190.18,197.14z"/>
</svg>
