<?xml version="1.0" encoding="utf-8"?>
<!-- Generator: Adobe Illustrator 23.0.0, SVG Export Plug-In . SVG Version: 6.00 Build 0)  -->
<svg version="1.1"
	 id="Ebene_1" inkscape:version="0.46" xmlns:cc="http://creativecommons.org/ns#" xmlns:dc="http://purl.org/dc/elements/1.1/" xmlns:inkscape="http://www.inkscape.org/namespaces/inkscape" xmlns:rdf="http://www.w3.org/1999/02/22-rdf-syntax-ns#" xmlns:sodipodi="http://sodipodi.sourceforge.net/DTD/sodipodi-0.dtd" xmlns:svg="http://www.w3.org/2000/svg"
	 xmlns="http://www.w3.org/2000/svg" xmlns:xlink="http://www.w3.org/1999/xlink" x="0px" y="0px" viewBox="0 0 400 400"
	 style="enable-background:new 0 0 400 400;" xml:space="preserve">
<style type="text/css">
	.st0{fill:none;}
	.st1{fill:url(#path5417_1_);stroke:#FFFFFF;stroke-width:19.5218;stroke-linecap:round;}
	.st2{fill-rule:evenodd;clip-rule:evenodd;fill:#FFFFFF;}
	.st3{fill:#FFFFFF;}
</style>
<defs>
	
	
		<inkscape:perspective  id="perspective10334" inkscape:persp3d-origin="240 : 255.48132 : 1" inkscape:vp_x="0 : 383.22198 : 1" inkscape:vp_y="0 : 1000 : 0" inkscape:vp_z="480 : 383.22198 : 1" sodipodi:type="inkscape:persp3d">
		</inkscape:perspective>
	
		<inkscape:perspective  id="perspective330" inkscape:persp3d-origin="372.04724 : 350.78739 : 1" inkscape:vp_x="0 : 526.18109 : 1" inkscape:vp_y="0 : 1000 : 0" inkscape:vp_z="744.09448 : 526.18109 : 1" sodipodi:type="inkscape:persp3d">
		</inkscape:perspective>
	
		<inkscape:perspective  id="perspective5408" inkscape:persp3d-origin="372.04724 : 350.78739 : 1" inkscape:vp_x="0 : 526.18109 : 1" inkscape:vp_y="0 : 1000 : 0" inkscape:vp_z="744.09448 : 526.18109 : 1" sodipodi:type="inkscape:persp3d">
		</inkscape:perspective>
	
		<inkscape:perspective  id="perspective4619" inkscape:persp3d-origin="372.04724 : 350.78739 : 1" inkscape:vp_x="0 : 526.18109 : 1" inkscape:vp_y="0 : 1000 : 0" inkscape:vp_z="744.09448 : 526.18109 : 1" sodipodi:type="inkscape:persp3d">
		</inkscape:perspective>
</defs>
<sodipodi:namedview  bordercolor="#666666" borderopacity="1.0" gridtolerance="10.0" guidetolerance="10.0" id="base" inkscape:current-layer="Ebene_1" inkscape:cx="-147.4522" inkscape:cy="316.62508" inkscape:guide-bbox="true" inkscape:pageopacity="0.0" inkscape:pageshadow="2" inkscape:window-height="771" inkscape:window-width="1276" inkscape:window-x="0" inkscape:window-y="0" inkscape:zoom="0.75804626" objecttolerance="10.0" pagecolor="#ffffff" showgrid="false" showguides="true">
	<sodipodi:guide  id="guide4603" orientation="0,1" position="-153.02496,573.84361"></sodipodi:guide>
	<sodipodi:guide  id="guide4605" orientation="0,1" position="-171.49349,73.87412"></sodipodi:guide>
	<sodipodi:guide  id="guide4609" orientation="1,0" position="498.65031,29.021976"></sodipodi:guide>
	<sodipodi:guide  id="guide4611" orientation="1,0" position="-1.3191807,25.064433"></sodipodi:guide>
</sodipodi:namedview>
<g id="g15016">
	<rect id="rect2300" x="-41.2" y="-56.86" class="st0" width="500" height="500"/>
	<g id="g9502" transform="matrix(0.7761093,0,0,0.7761093,971.3179,374.28256)">
		<g id="g5592" transform="matrix(1.1542431,0,0,1.1542431,-1340.2803,-524.79832)">
			
				<linearGradient id="path5417_1_" gradientUnits="userSpaceOnUse" x1="264.1051" y1="964.3683" x2="377.3449" y2="721.9317" gradientTransform="matrix(0.8958 0 0 -0.8958 -74.5847 814.4859)">
				<stop  offset="0" style="stop-color:#FFFFFF"/>
				<stop  offset="1" style="stop-color:#FFFFFF;stop-opacity:0"/>
			</linearGradient>
			<path id="path5417" class="st1" d="M102.94,79.74c0,116.34,0,232.68,0,349.01c133.6,0,267.2,0,400.8,0c0-117.05,0-234.1,0-351.15
				c-133.6,0-267.2,0-400.8,0v1.07V79.74z"/>
			<g id="g5457">
				<path id="path5441" sodipodi:nodetypes="ccczcccczcc" class="st2" d="M494.63,83.29C357.58,114,220.66,142.44,106.06,191.86
					l2.14,70c7.29,7.29,290.52-52.6,306.43-12.14c15.91,40.45-299.13,97.41-305.71,93.57l2.14,25.71
					c138.03-26.95,272.84-56.39,386.43-102.14l1.43-82.14c-110.33,9.32-308.52,38.53-287.86,11.43s101.26-54,287.86-87.14
					L494.63,83.29z"/>
				<g id="g5451" transform="translate(-60.714286,5.7142857)">
					
						<path id="path5443" sodipodi:cx="59.285713" sodipodi:cy="489.50504" sodipodi:rx="7.1428571" sodipodi:ry="7.1428571" sodipodi:type="arc" class="st3" d="
						M192.49,279.72c0,3.16-2.56,5.71-5.71,5.71s-5.71-2.56-5.71-5.71s2.56-5.71,5.71-5.71S192.49,276.56,192.49,279.72z"/>
					
						<path id="path5445" sodipodi:cx="59.285713" sodipodi:cy="489.50504" sodipodi:rx="7.1428571" sodipodi:ry="7.1428571" sodipodi:type="arc" class="st3" d="
						M208.49,279.72c0,3.16-2.56,5.71-5.71,5.71s-5.71-2.56-5.71-5.71s2.56-5.71,5.71-5.71S208.49,276.56,208.49,279.72z"/>
					
						<path id="path5447" sodipodi:cx="59.285713" sodipodi:cy="489.50504" sodipodi:rx="7.1428571" sodipodi:ry="7.1428571" sodipodi:type="arc" class="st3" d="
						M192.49,305.72c0,3.16-2.56,5.71-5.71,5.71s-5.71-2.56-5.71-5.71s2.56-5.71,5.71-5.71S192.49,302.56,192.49,305.72z"/>
					
						<path id="path5449" sodipodi:cx="59.285713" sodipodi:cy="489.50504" sodipodi:rx="7.1428571" sodipodi:ry="7.1428571" sodipodi:type="arc" class="st3" d="
						M208.49,305.72c0,3.16-2.56,5.71-5.71,5.71s-5.71-2.56-5.71-5.71s2.56-5.71,5.71-5.71S208.49,302.56,208.49,305.72z"/>
				</g>
			</g>
			<rect id="rect5465" x="107.49" y="367.57" class="st3" width="390.71" height="47.86"/>
		</g>
	</g>
</g>
</svg>
