<?xml version="1.0" encoding="utf-8"?>
<!-- Generator: Adobe Illustrator 23.0.0, SVG Export Plug-In . SVG Version: 6.00 Build 0)  -->
<svg version="1.1" id="Layer_1" xmlns:sketch="http://www.bohemiancoding.com/sketch/ns"
	 xmlns="http://www.w3.org/2000/svg" xmlns:xlink="http://www.w3.org/1999/xlink" x="0px" y="0px" viewBox="0 0 175 387"
	 style="enable-background:new 0 0 175 387;" xml:space="preserve">
<style type="text/css">
	.st0{fill:#FFFFFF;}
</style>
<title>gulp</title>
<desc>Created with Sketch.</desc>
<g id="Page-1" sketch:type="MSPage">
	<g id="gulp" sketch:type="MSArtboardGroup">
		<g id="Gulp-Logo" transform="translate(0.000000, 1.000000)" sketch:type="MSLayerGroup">
			<path id="Cup" sketch:type="MSShapeGroup" class="st0" d="M86.72,303.74c-22.57,0-40.02-3.39-48.41-5.41
				c-5.74-1.38-10.34-2.81-13.84-4.28l11.19,19.11l4.38,59.72c0,6.7,21.27,12.12,47.5,12.12s47.5-5.43,47.5-12.12l3.46-60.37
				l10.59-18.52c-3.51,1.49-8.16,2.94-13.97,4.34C126.74,300.35,109.29,303.74,86.72,303.74z M149.46,109.41
				c-16.57,2.31-38.56,3.59-61.92,3.59s-45.35-1.28-61.92-3.59c-8.21-1.15-14.7-2.5-19.3-4.02c-1.1-0.36-2.96-0.98-4.74-1.97
				l10.27,94.47c0.48-1.63,1.01-3.25,1.6-4.87c1.2-3.32,2.6-6.56,4.18-9.73c1.58-3.17,3.31-6.16,5.17-8.98
				c1.86-2.82,3.84-5.42,5.95-7.79c2.1-2.37,4.26-4.41,6.47-6.12c2.21-1.71,4.45-3.04,6.7-4.01c2.26-0.96,4.49-1.44,6.7-1.44
				c2.55,0,5.01,0.7,7.4,2.09c2.38,1.39,4.61,3.65,6.68,6.77c0.48,0.7,0.78,1.4,0.9,2.12c0.13,0.71,0.19,1.39,0.19,2.02
				c0,1.49-0.36,2.67-1.07,3.53c-0.71,0.86-1.56,1.29-2.54,1.29c-0.9,0-1.73-0.47-2.5-1.42c-0.77-0.95-1.63-2.3-2.59-4.06
				c-0.9-1.59-1.88-2.75-2.96-3.46c-1.08-0.71-2.25-1.07-3.51-1.07c-1.96,0-4.06,0.81-6.28,2.44c-2.23,1.62-4.43,3.77-6.62,6.45
				c-2.19,2.67-4.28,5.72-6.28,9.16c-2,3.43-3.78,6.95-5.32,10.55c-1.54,3.6-2.76,7.15-3.68,10.65c-0.91,3.5-1.37,6.64-1.37,9.43
				c0,0.93,0.06,1.88,0.19,2.86c0.13,0.98,0.36,1.87,0.72,2.66c0.35,0.8,0.83,1.45,1.43,1.96c0.6,0.52,1.37,0.77,2.29,0.77
				c1.04,0,2.21-0.35,3.53-1.04c1.32-0.7,2.68-1.61,4.1-2.74c1.41-1.13,2.84-2.41,4.27-3.83c1.43-1.43,2.76-2.87,3.99-4.33
				c1.23-1.46,2.32-2.86,3.28-4.2c0.95-1.34,1.67-2.51,2.14-3.51l3.91-11.7c0.48-1.26,1.1-2.16,1.87-2.69
				c0.77-0.53,1.56-0.8,2.38-0.8c0.39,0,0.78,0.07,1.18,0.2c0.39,0.13,0.74,0.34,1.05,0.62c0.31,0.28,0.55,0.65,0.74,1.1
				c0.18,0.45,0.27,0.97,0.27,1.57c0,1.59-0.14,3.08-0.42,4.48c-0.28,1.4-0.64,2.75-1.07,4.08c-0.43,1.33-0.92,2.66-1.45,4.01
				c-0.53,1.34-1.05,2.75-1.55,4.21c-0.11,0.17-0.32,0.69-0.61,1.57c-0.29,0.88-0.65,1.99-1.07,3.31c-0.42,1.33-0.88,2.81-1.37,4.46
				c-0.49,1.64-0.99,3.32-1.51,5.03c-0.52,1.71-1.02,3.39-1.49,5.03c-0.48,1.64-0.9,3.13-1.28,4.46c-0.38,1.33-0.69,2.44-0.95,3.33
				c-0.25,0.9-0.41,1.43-0.46,1.59c-0.14,0.53-0.37,1.12-0.67,1.76c-0.31,0.65-0.67,1.26-1.09,1.84c-0.42,0.58-0.88,1.06-1.39,1.44
				c-0.5,0.38-1.02,0.57-1.56,0.57c-0.9,0-1.55-0.3-1.95-0.9c-0.41-0.6-0.61-1.69-0.61-3.29v-0.7c0-0.23,0.01-0.48,0.04-0.75
				c0.03-0.53,0.24-1.53,0.63-2.99c0.39-1.46,0.86-3.11,1.41-4.95c0.55-1.84,1.13-3.75,1.76-5.73c0.63-1.97,1.2-3.74,1.7-5.3
				c-1.49,1.66-3.1,3.31-4.83,4.95c-1.74,1.64-3.52,3.12-5.34,4.43c-1.82,1.31-3.66,2.38-5.51,3.21c-1.85,0.83-3.63,1.25-5.34,1.25
				c-1.96,0-3.65-0.43-5.06-1.29c-0.26-0.16-0.5-0.33-0.74-0.51l5.71,59.89c1.49,3.73,29.48,12.88,66.39,12.88
				c36.93,0,64.93-9.17,66.39-12.89l8.2-71.2c-0.68,0.62-1.34,1.23-1.97,1.82c-2.35,2.19-4.57,4.07-6.66,5.65
				c-2.09,1.58-4.12,2.8-6.11,3.66c-1.99,0.86-4.12,1.3-6.39,1.3c-2.13,0-3.78-0.47-4.94-1.39c-1.16-0.93-1.74-2.21-1.74-3.83v-0.37
				c0-0.12,0.01-0.26,0.04-0.42c0.11-0.99,0.55-2.14,1.3-3.43c0.76-1.3,1.67-2.64,2.73-4.03c1.07-1.39,2.2-2.81,3.4-4.23
				c1.21-1.43,2.32-2.78,3.34-4.06c1.02-1.27,1.87-2.44,2.54-3.51c0.67-1.06,1.01-1.92,1.01-2.59c0-0.4-0.14-0.71-0.42-0.95
				c-0.28-0.23-0.74-0.35-1.39-0.35c-1.12,0-2.28,0.29-3.47,0.87c-1.19,0.58-2.37,1.36-3.53,2.34c-1.16,0.98-2.3,2.1-3.4,3.36
				c-1.1,1.26-2.14,2.57-3.11,3.93c-0.97,1.36-1.85,2.73-2.65,4.11c-0.8,1.38-1.48,2.65-2.04,3.81c-0.17,0.37-0.41,0.88-0.72,1.54
				c-0.31,0.66-0.64,1.41-1.01,2.24c-0.37,0.83-0.75,1.68-1.16,2.56c-0.41,0.88-0.78,1.71-1.11,2.49c-0.34,0.78-0.64,1.47-0.9,2.09
				c-0.27,0.61-0.46,1.04-0.57,1.27c-0.14,0.3-0.37,0.86-0.69,1.69c-0.32,0.83-0.69,1.8-1.11,2.91c-0.42,1.11-0.86,2.28-1.32,3.51
				c-0.46,1.23-0.9,2.39-1.3,3.48c-0.41,1.09-0.76,2.06-1.07,2.89c-0.31,0.83-0.51,1.39-0.59,1.69c-0.28,0.86-0.61,1.67-0.99,2.44
				c-0.38,0.76-0.81,1.43-1.3,2.02c-0.49,0.58-1.05,1.04-1.68,1.39c-0.63,0.35-1.34,0.52-2.12,0.52c-1.01,0-1.84-0.24-2.5-0.72
				c-0.66-0.48-0.99-1.4-0.99-2.76c0-0.66,0.08-1.34,0.25-2.04c0.17-0.7,0.38-1.39,0.63-2.07c0.25-0.68,0.51-1.34,0.78-1.99
				c0.26-0.65,0.51-1.27,0.73-1.87c1.51-3.32,3.06-6.64,4.62-9.98c1.57-3.33,3.07-6.63,4.52-9.9c0.3-0.68,0.58-1.35,0.87-2.03
				c-0.09,0.09-0.17,0.18-0.26,0.26c-1.82,1.76-3.64,3.31-5.44,4.65c-1.81,1.34-3.6,2.41-5.38,3.21c-1.78,0.79-3.51,1.19-5.19,1.19
				c-1.15,0-2.11-0.18-2.88-0.55c-0.77-0.37-1.39-0.86-1.85-1.49c-0.46-0.63-0.79-1.38-0.99-2.24c-0.07-0.29-0.11-0.6-0.15-0.91
				c-0.49,0.38-0.99,0.76-1.49,1.11c-1.74,1.23-3.45,2.21-5.13,2.96c-1.68,0.75-3.19,1.12-4.54,1.12c-1.35,0-2.44-0.45-3.28-1.34
				c-0.84-0.89-1.26-2.42-1.26-4.58c0-1.53,0.22-3.3,0.67-5.33c-0.73,1.29-1.64,2.6-2.73,3.93c-1.09,1.33-2.34,2.54-3.74,3.63
				c-1.4,1.09-2.97,1.98-4.71,2.66c-1.74,0.68-3.63,1.02-5.67,1.02c-0.92,0-1.81-0.12-2.67-0.35c-0.85-0.23-1.6-0.63-2.25-1.19
				c-0.65-0.56-1.16-1.32-1.56-2.26c-0.39-0.94-0.59-2.13-0.59-3.56c0-0.03,0.06-0.54,0.17-1.52c0.11-0.98,0.47-2.52,1.07-4.63
				c0.6-2.11,1.53-4.84,2.79-8.19c1.26-3.35,3.04-7.42,5.34-12.19c0.59-1.26,1.27-2.17,2.04-2.71c0.77-0.55,1.6-0.82,2.5-0.82
				c0.39,0,0.8,0.06,1.22,0.17c0.42,0.12,0.81,0.3,1.18,0.55c0.36,0.25,0.66,0.57,0.88,0.95c0.22,0.38,0.34,0.82,0.34,1.32
				c0,0.33-0.04,0.65-0.13,0.94c-0.14,0.57-0.44,1.3-0.9,2.21c-0.46,0.91-1,1.96-1.62,3.14c-0.61,1.18-1.27,2.45-1.95,3.81
				c-0.69,1.36-1.32,2.77-1.91,4.23c-0.59,1.46-1.09,2.94-1.51,4.46c-0.42,1.51-0.66,2.98-0.71,4.4c0,0.6,0.14,1.14,0.42,1.64
				c0.28,0.5,0.74,0.75,1.39,0.75c1.82,0,3.56-0.6,5.21-1.79c1.65-1.2,3.18-2.68,4.58-4.46c1.4-1.77,2.67-3.68,3.8-5.73
				c1.14-2.04,2.08-3.91,2.84-5.6c0.53-1.13,1-2.34,1.41-3.63c0.41-1.29,0.85-2.49,1.32-3.58c0.48-1.1,1.02-2.01,1.64-2.74
				c0.61-0.73,1.39-1.1,2.31-1.1c1.01,0,1.81,0.38,2.4,1.15c0.59,0.76,0.88,1.68,0.88,2.74c0,0.6-0.19,1.42-0.57,2.46
				c-0.38,1.05-0.86,2.24-1.43,3.58c-0.58,1.34-1.2,2.78-1.87,4.3c-0.67,1.53-1.3,3.08-1.87,4.65c-0.58,1.58-1.05,3.12-1.43,4.63
				c-0.38,1.51-0.57,2.91-0.57,4.21c0,1.19,0.62,1.79,1.85,1.79c0.87,0,1.95-0.3,3.24-0.9c1.29-0.6,2.64-1.43,4.06-2.51
				c0.35-0.27,0.71-0.55,1.06-0.85c0.4-1.63,0.86-3.13,1.4-4.5c0.98-2.59,1.97-5.16,2.98-7.71c1.01-2.56,1.93-4.9,2.77-7.02
				l12.73-32.1c0.5-1.29,1.18-2.21,2.04-2.74c0.86-0.53,1.72-0.8,2.59-0.8c0.87,0,1.66,0.28,2.37,0.85
				c0.71,0.57,1.07,1.48,1.07,2.74c0,0.6-0.12,1.23-0.36,1.89c-0.24,0.66-0.54,1.38-0.9,2.14c-0.7,1.56-1.53,3.47-2.5,5.72
				c-0.97,2.26-2,4.71-3.11,7.37c-1.11,2.65-2.24,5.42-3.4,8.29c-1.16,2.87-2.3,5.67-3.4,8.39c-1.1,2.72-2.14,5.3-3.11,7.74
				c-0.97,2.44-1.8,4.56-2.5,6.35c-0.31,0.76-0.61,1.65-0.9,2.66c-0.29,1.01-0.44,1.92-0.44,2.71c0,0.5,0.08,0.89,0.25,1.19
				s0.49,0.45,0.97,0.45c0.59,0,1.32-0.21,2.21-0.62c0.88-0.41,1.83-0.96,2.86-1.64c1.02-0.68,2.09-1.46,3.19-2.34
				c1.11-0.88,2.21-1.79,3.3-2.74c1.09-0.95,2.14-1.89,3.13-2.84c0.99-0.94,1.88-1.82,2.67-2.61c0.18-0.19,0.4-0.33,0.65-0.43
				c0.47-1.41,0.91-2.8,1.29-4.15c0.22-0.6,0.53-1.44,0.93-2.54c0.39-1.1,0.84-2.17,1.34-3.24c0.5-1.06,1.07-1.98,1.7-2.76
				c0.63-0.78,1.31-1.17,2.04-1.17c1.12,0,1.93,0.26,2.44,0.77c0.5,0.52,0.76,1.27,0.76,2.27c0,0.2-0.03,0.51-0.08,0.94
				c-0.06,0.43-0.12,0.89-0.21,1.37c-0.08,0.48-0.18,0.94-0.27,1.37c-0.1,0.43-0.19,0.75-0.27,0.95c1.04-1.13,2.16-2.25,3.36-3.36
				c1.2-1.11,2.45-2.12,3.74-3.01c1.29-0.9,2.61-1.62,3.95-2.19c1.34-0.56,2.69-0.85,4.03-0.85c0.92,0,1.84,0.13,2.75,0.4
				c0.91,0.26,1.72,0.65,2.44,1.17c0.72,0.52,1.3,1.16,1.74,1.94c0.45,0.78,0.67,1.68,0.67,2.71c0,1.36-0.34,2.81-1.03,4.36
				c-0.69,1.54-1.55,3.09-2.58,4.65c-1.04,1.56-2.16,3.08-3.36,4.55c-1.2,1.48-2.33,2.82-3.38,4.03c-1.05,1.21-1.93,2.24-2.65,3.09
				c-0.71,0.85-1.09,1.42-1.11,1.72c0,0.4,0.13,0.72,0.38,0.97c0.25,0.25,0.67,0.37,1.26,0.37c0.48,0,1.18-0.27,2.1-0.8
				c0.92-0.53,2.22-1.45,3.89-2.76s3.78-3.07,6.35-5.28c1.76-1.51,3.82-3.31,6.14-5.37l11.11-102.93c-1.79,0.99-3.65,1.61-4.75,1.97
				C164.16,106.91,157.66,108.26,149.46,109.41z M87.47,84.99c-48.05,0-87,5.37-87,12c0,6.63,38.95,12,87,12s87-5.37,87-12
				C174.47,90.36,135.52,84.99,87.47,84.99z M122.21,100.5c0,1.56-4.63,2.82-10.34,2.82c-5.71,0-10.34-1.26-10.34-2.82
				c0-1.56,4.63-2.82,10.34-2.82C117.58,97.68,122.21,98.94,122.21,100.5z"/>
			<path id="Straw" sketch:type="MSShapeGroup" class="st0" d="M103.63,99.25c-0.05,0.08-0.08,0.17-0.08,0.25
				c0,1.01,3.73,1.82,8.32,1.82c4.6,0,8.32-0.81,8.32-1.82l10.87-44.08L174.3,9.78c0.01-0.01,0.03-0.03,0.04-0.04
				c0.92-1.03-0.94-4.24-4.02-6.99c-3.08-2.75-6.41-3.68-7.44-2.63c-0.01,0.01-0.02,0.02-0.02,0.02l-46.13,48.54L103.63,99.25z"/>
		</g>
	</g>
</g>
</svg>
