<?xml version="1.0" encoding="utf-8"?>
<!-- Generator: Adobe Illustrator 23.0.0, SVG Export Plug-In . SVG Version: 6.00 Build 0)  -->
<svg version="1.1" id="Layer_1" xmlns="http://www.w3.org/2000/svg" xmlns:xlink="http://www.w3.org/1999/xlink" x="0px" y="0px"
	 viewBox="0 0 400 713" style="enable-background:new 0 0 400 713;" xml:space="preserve">
<style type="text/css">
	.st0{fill:#FFFFFF;}
	.st1{opacity:0.5;fill:#FFFFFF;}
</style>
<path class="st0" d="M349.62,276.35C313.13,115.5,227.06,62.78,217.6,42.5c-10.36-14.42-20.28-39.65-20.28-39.65l0.02,1.11
	c3.44,14.71,5.2,67.48,6.17,127.05c1.41,86.6,1.15,187.54,1.92,206.63c2.12,67.3,0.04,132.11-3.91,182.07
	c-3.59,45.38-8.72,78.51-13.66,90.08c0,0-0.7-0.48-1.99-1.42c12.66,29.68,11.45,80.27,11.45,80.27l18.47,6.31c0,0-3.6-49.57,1.81-73
	c1.51-7.3,5.18-13.67,9.54-19c3.19-2.24,11.52-8.36,22.49-18.39c0.55-0.3,0.87-0.46,0.87-0.46c-0.01-0.11-0.02-0.21-0.02-0.32
	C294.22,543.47,378,442.19,349.62,276.35z"/>
<path class="st1" d="M205.43,337.64c-0.77-19.09-0.51-120.02-1.92-206.63c-0.97-59.56-2.73-112.34-6.17-127.05
	c-0.29-1.25-0.6-2.24-0.92-2.92c-0.9,14.42-1.35,19.83-14.87,34.25C160.82,51.51,53.58,141.18,45.02,323.67
	c-8.4,170.14,123.02,271.73,140.85,284.7c1.29,0.94,1.99,1.42,1.99,1.42c4.93-11.58,10.07-44.71,13.66-90.08
	C205.47,469.75,207.56,404.93,205.43,337.64z"/>
</svg>
