<?xml version="1.0" encoding="utf-8"?>
<!-- Generator: Adobe Illustrator 23.0.0, SVG Export Plug-In . SVG Version: 6.00 Build 0)  -->
<svg version="1.1" id="ps_x5F_cc_x5F_app_x5F_RGB.svg"
	 xmlns="http://www.w3.org/2000/svg" xmlns:xlink="http://www.w3.org/1999/xlink" x="0px" y="0px" viewBox="0 0 2500 2438"
	 style="enable-background:new 0 0 2500 2438;" xml:space="preserve">
<style type="text/css">
	.st0{fill:#FFFFFF;}
</style>
<path class="st0" d="M0,0.25v2437.5h2500V0.25H0z M104.17,104.42h2291.67v2229.17H104.17V104.42z"/>
<path class="st0" d="M1815.63,1024.21c-15.62-7.29-35.42-10.42-60.42-10.42c-131.25,0-218.75,101.04-218.75,268.75
	c0,191.67,89.58,268.75,206.25,268.75c25,0,52.08-3.13,71.88-11.46v-515.62H1815.63z M1348.96,1290.88
	c0-242.71,156.25-432.29,412.5-432.29c21.88,0,33.33,0,54.17,2.08V589.83c0-6.25,5.21-10.42,10.42-10.42h167.71
	c8.33,0,10.42,3.12,10.42,8.33v952.08c0,28.12,0,63.54,5.21,102.08c0,7.29,0,8.33-6.25,11.46c-87.5,41.67-179.17,60.42-266.67,60.42
	C1510.42,1713.79,1348.96,1574.21,1348.96,1290.88L1348.96,1290.88z M993.75,1122.12l291.67,565.62c5.21,8.33,2.08,16.67-6.25,16.67
	h-181.25c-11.46,0-16.67-3.12-21.88-13.54c-66.67-137.5-134.38-280.21-204.17-428.12h-2.08
	c-62.5,139.58-131.25,291.67-197.92,429.17c-5.21,8.33-10.42,11.46-18.75,11.46H480.21c-10.42,0-11.46-8.33-6.25-14.58
	l285.42-548.96L483.33,594c-6.25-8.33,0-15.62,7.29-15.62h179.17c10.42,0,15.62,2.08,18.75,11.46
	c65.62,138.54,132.29,275,194.79,414.58h2.08c60.42-137.5,127.08-276.04,190.63-412.5c5.21-8.33,8.33-13.54,18.75-13.54h167.71
	c8.33,0,11.46,6.25,6.25,15.62L993.75,1122.12L993.75,1122.12z"/>
</svg>
